<?xml version="1.0" encoding="UTF-8"?>
<svg xmlns="http://www.w3.org/2000/svg" xmlns:xlink="http://www.w3.org/1999/xlink" width="48.11pt" height="23.91pt" viewBox="0 0 48.11 23.91" version="1.1">
<defs>
<clipPath id="clip1">
  <path d="M 4 0 L 7 0 L 7 23.910156 L 4 23.910156 Z M 4 0 "/>
</clipPath>
<clipPath id="clip2">
  <path d="M 43 0 L 46 0 L 46 23.910156 L 43 23.910156 Z M 43 0 "/>
</clipPath>
</defs>
<g id="surface1">
<g clip-path="url(#clip1)" clip-rule="nonzero">
<path style=" stroke:none;fill-rule:nonzero;fill:rgb(0%,0%,0%);fill-opacity:1;" d="M 4.183594 23.84375 L 6.796875 23.84375 L 6.796875 23.296875 L 4.730469 23.296875 L 4.730469 0.558594 L 6.796875 0.558594 L 6.796875 0.0117188 L 4.183594 0.0117188 L 4.183594 23.84375 "/>
</g>
<path style=" stroke:none;fill-rule:nonzero;fill:rgb(0%,0%,0%);fill-opacity:1;" d="M 10.21875 2.050781 C 10.21875 1.816406 10.21875 1.792969 9.992188 1.792969 C 9.375 2.429688 8.5 2.429688 8.183594 2.429688 L 8.183594 2.738281 C 8.382812 2.738281 8.96875 2.738281 9.484375 2.480469 L 9.484375 7.625 C 9.484375 7.984375 9.457031 8.101562 8.5625 8.101562 L 8.242188 8.101562 L 8.242188 8.410156 C 8.589844 8.378906 9.457031 8.378906 9.851562 8.378906 C 10.25 8.378906 11.113281 8.378906 11.460938 8.410156 L 11.460938 8.101562 L 11.144531 8.101562 C 10.25 8.101562 10.21875 7.992188 10.21875 7.625 L 10.21875 2.050781 "/>
<path style=" stroke:none;fill-rule:nonzero;fill:rgb(0%,0%,0%);fill-opacity:1;" d="M 23.960938 7.644531 L 25.015625 6.621094 C 26.5625 5.25 27.160156 4.714844 27.160156 3.722656 C 27.160156 2.589844 26.265625 1.792969 25.054688 1.792969 C 23.929688 1.792969 23.195312 2.707031 23.195312 3.59375 C 23.195312 4.148438 23.695312 4.148438 23.722656 4.148438 C 23.890625 4.148438 24.238281 4.027344 24.238281 3.621094 C 24.238281 3.363281 24.0625 3.105469 23.710938 3.105469 C 23.632812 3.105469 23.613281 3.105469 23.585938 3.113281 C 23.8125 2.46875 24.347656 2.101562 24.925781 2.101562 C 25.828125 2.101562 26.257812 2.90625 26.257812 3.722656 C 26.257812 4.515625 25.757812 5.300781 25.210938 5.917969 L 23.304688 8.042969 C 23.195312 8.152344 23.195312 8.171875 23.195312 8.410156 L 26.882812 8.410156 L 27.160156 6.683594 L 26.914062 6.683594 C 26.863281 6.980469 26.792969 7.417969 26.695312 7.566406 C 26.625 7.644531 25.96875 7.644531 25.75 7.644531 L 23.960938 7.644531 "/>
<path style=" stroke:none;fill-rule:nonzero;fill:rgb(0%,0%,0%);fill-opacity:1;" d="M 40.679688 4.914062 C 41.496094 4.644531 42.070312 3.949219 42.070312 3.164062 C 42.070312 2.351562 41.195312 1.792969 40.242188 1.792969 C 39.242188 1.792969 38.484375 2.390625 38.484375 3.144531 C 38.484375 3.472656 38.703125 3.660156 38.992188 3.660156 C 39.300781 3.660156 39.5 3.441406 39.5 3.15625 C 39.5 2.660156 39.03125 2.660156 38.882812 2.660156 C 39.191406 2.171875 39.847656 2.042969 40.203125 2.042969 C 40.609375 2.042969 41.15625 2.261719 41.15625 3.15625 C 41.15625 3.273438 41.136719 3.851562 40.878906 4.289062 C 40.582031 4.765625 40.242188 4.792969 39.996094 4.804688 C 39.914062 4.816406 39.679688 4.832031 39.609375 4.832031 C 39.527344 4.84375 39.460938 4.855469 39.460938 4.953125 C 39.460938 5.0625 39.527344 5.0625 39.695312 5.0625 L 40.132812 5.0625 C 40.949219 5.0625 41.316406 5.738281 41.316406 6.710938 C 41.316406 8.0625 40.632812 8.351562 40.195312 8.351562 C 39.765625 8.351562 39.023438 8.183594 38.671875 7.597656 C 39.023438 7.644531 39.328125 7.425781 39.328125 7.050781 C 39.328125 6.691406 39.0625 6.492188 38.773438 6.492188 C 38.535156 6.492188 38.21875 6.632812 38.21875 7.070312 C 38.21875 7.972656 39.140625 8.628906 40.222656 8.628906 C 41.4375 8.628906 42.339844 7.722656 42.339844 6.710938 C 42.339844 5.898438 41.714844 5.121094 40.679688 4.914062 "/>
<path style=" stroke:none;fill-rule:nonzero;fill:rgb(0%,0%,0%);fill-opacity:1;" d="M 10.21875 17.308594 C 10.277344 17.050781 10.507812 16.136719 11.203125 16.136719 C 11.25 16.136719 11.488281 16.136719 11.699219 16.265625 C 11.421875 16.316406 11.222656 16.566406 11.222656 16.804688 C 11.222656 16.960938 11.328125 17.152344 11.597656 17.152344 C 11.816406 17.152344 12.132812 16.972656 12.132812 16.574219 C 12.132812 16.058594 11.546875 15.917969 11.210938 15.917969 C 10.632812 15.917969 10.289062 16.445312 10.167969 16.675781 C 9.921875 16.019531 9.382812 15.917969 9.09375 15.917969 C 8.0625 15.917969 7.496094 17.199219 7.496094 17.449219 C 7.496094 17.550781 7.59375 17.550781 7.617188 17.550781 C 7.695312 17.550781 7.726562 17.527344 7.742188 17.441406 C 8.082031 16.386719 8.738281 16.136719 9.074219 16.136719 C 9.265625 16.136719 9.613281 16.226562 9.613281 16.804688 C 9.613281 17.113281 9.445312 17.777344 9.074219 19.167969 C 8.917969 19.785156 8.570312 20.199219 8.132812 20.199219 C 8.070312 20.199219 7.84375 20.199219 7.632812 20.070312 C 7.882812 20.023438 8.101562 19.8125 8.101562 19.535156 C 8.101562 19.265625 7.882812 19.1875 7.734375 19.1875 C 7.4375 19.1875 7.1875 19.445312 7.1875 19.761719 C 7.1875 20.222656 7.683594 20.417969 8.121094 20.417969 C 8.777344 20.417969 9.132812 19.722656 9.164062 19.664062 C 9.285156 20.03125 9.640625 20.417969 10.238281 20.417969 C 11.261719 20.417969 11.828125 19.136719 11.828125 18.890625 C 11.828125 18.789062 11.738281 18.789062 11.707031 18.789062 C 11.617188 18.789062 11.597656 18.832031 11.578125 18.898438 C 11.25 19.960938 10.574219 20.199219 10.257812 20.199219 C 9.871094 20.199219 9.710938 19.882812 9.710938 19.542969 C 9.710938 19.328125 9.769531 19.109375 9.878906 18.671875 L 10.21875 17.308594 "/>
<path style=" stroke:none;fill-rule:nonzero;fill:rgb(0%,0%,0%);fill-opacity:1;" d="M 27.429688 16.527344 C 27.46875 16.386719 27.46875 16.367188 27.46875 16.296875 C 27.46875 16.117188 27.328125 16.027344 27.179688 16.027344 C 27.078125 16.027344 26.921875 16.089844 26.832031 16.238281 C 26.8125 16.285156 26.734375 16.59375 26.691406 16.773438 C 26.625 17.03125 26.554688 17.300781 26.492188 17.566406 L 26.046875 19.355469 C 26.007812 19.503906 25.578125 20.199219 24.925781 20.199219 C 24.417969 20.199219 24.308594 19.761719 24.308594 19.394531 C 24.308594 18.941406 24.476562 18.324219 24.816406 17.449219 C 24.972656 17.042969 25.015625 16.933594 25.015625 16.734375 C 25.015625 16.285156 24.695312 15.917969 24.199219 15.917969 C 23.257812 15.917969 22.886719 17.359375 22.886719 17.449219 C 22.886719 17.550781 22.988281 17.550781 23.007812 17.550781 C 23.105469 17.550781 23.117188 17.527344 23.164062 17.371094 C 23.433594 16.4375 23.832031 16.136719 24.167969 16.136719 C 24.25 16.136719 24.417969 16.136719 24.417969 16.457031 C 24.417969 16.703125 24.320312 16.960938 24.25 17.152344 C 23.851562 18.203125 23.671875 18.769531 23.671875 19.238281 C 23.671875 20.121094 24.296875 20.417969 24.882812 20.417969 C 25.273438 20.417969 25.609375 20.25 25.886719 19.972656 C 25.757812 20.488281 25.640625 20.976562 25.242188 21.503906 C 24.984375 21.839844 24.605469 22.128906 24.148438 22.128906 C 24.011719 22.128906 23.5625 22.097656 23.394531 21.710938 C 23.554688 21.710938 23.683594 21.710938 23.820312 21.589844 C 23.921875 21.503906 24.019531 21.371094 24.019531 21.183594 C 24.019531 20.875 23.75 20.835938 23.652344 20.835938 C 23.425781 20.835938 23.097656 20.996094 23.097656 21.480469 C 23.097656 21.980469 23.535156 22.347656 24.148438 22.347656 C 25.171875 22.347656 26.195312 21.441406 26.472656 20.320312 L 27.429688 16.527344 "/>
<path style=" stroke:none;fill-rule:nonzero;fill:rgb(0%,0%,0%);fill-opacity:1;" d="M 39.121094 19.484375 C 39.65625 18.910156 39.945312 18.660156 40.304688 18.355469 C 40.304688 18.34375 40.917969 17.816406 41.277344 17.457031 C 42.21875 16.535156 42.4375 16.058594 42.4375 16.019531 C 42.4375 15.917969 42.351562 15.917969 42.328125 15.917969 C 42.261719 15.917969 42.230469 15.941406 42.179688 16.027344 C 41.882812 16.503906 41.671875 16.664062 41.4375 16.664062 C 41.195312 16.664062 41.078125 16.515625 40.929688 16.347656 C 40.742188 16.117188 40.570312 15.917969 40.242188 15.917969 C 39.5 15.917969 39.042969 16.84375 39.042969 17.050781 C 39.042969 17.101562 39.070312 17.160156 39.160156 17.160156 C 39.25 17.160156 39.269531 17.113281 39.289062 17.050781 C 39.476562 16.59375 40.054688 16.585938 40.132812 16.585938 C 40.34375 16.585938 40.53125 16.652344 40.761719 16.734375 C 41.15625 16.882812 41.265625 16.882812 41.523438 16.882812 C 41.167969 17.308594 40.332031 18.027344 40.144531 18.183594 L 39.25 19.019531 C 38.574219 19.683594 38.226562 20.25 38.226562 20.320312 C 38.226562 20.417969 38.328125 20.417969 38.347656 20.417969 C 38.425781 20.417969 38.445312 20.398438 38.503906 20.289062 C 38.734375 19.941406 39.03125 19.675781 39.351562 19.675781 C 39.578125 19.675781 39.679688 19.761719 39.925781 20.050781 C 40.09375 20.261719 40.273438 20.417969 40.5625 20.417969 C 41.546875 20.417969 42.121094 19.160156 42.121094 18.890625 C 42.121094 18.839844 42.082031 18.789062 42 18.789062 C 41.914062 18.789062 41.890625 18.847656 41.863281 18.917969 C 41.632812 19.566406 41 19.753906 40.671875 19.753906 C 40.472656 19.753906 40.292969 19.695312 40.085938 19.625 C 39.746094 19.496094 39.597656 19.457031 39.390625 19.457031 C 39.367188 19.457031 39.210938 19.457031 39.121094 19.484375 "/>
<g clip-path="url(#clip2)" clip-rule="nonzero">
<path style=" stroke:none;fill-rule:nonzero;fill:rgb(0%,0%,0%);fill-opacity:1;" d="M 45.105469 23.296875 L 43.039062 23.296875 L 43.039062 23.84375 L 45.652344 23.84375 L 45.652344 0.0117188 L 43.039062 0.0117188 L 43.039062 0.558594 L 45.105469 0.558594 L 45.105469 23.296875 "/>
</g>
</g>
</svg>
